<svg xmlns="http://www.w3.org/2000/svg" xmlns:xlink="http://www.w3.org/1999/xlink" style="isolation:isolate" width="1024pt" height="1024pt" viewBox="0 0 1024 1024"><defs><clipPath id="_clipPath_PVOGBvqZsxaxUNx2SLJnXLpxPDMZFEph"><rect width="1024" height="1024"/></clipPath></defs><g clip-path="url(#_clipPath_PVOGBvqZsxaxUNx2SLJnXLpxPDMZFEph)"><g><g><g><g><path fill="none" d="M 190.095 124.228 C 169.314 143.591 150.999 164.375 135.081 186.221 L 135.081 186.221 C 198.445 100.176 304.73 43.701 425.199 43.701 L 425.199 43.701 C 619.414 43.701 776.85 190.393 776.85 371.354 L 776.85 371.354 C 776.85 429.489 760.526 484.054 732.019 531.391 L 732.019 531.391 C 725.204 543.555 717.091 555.239 707.78 566.352 L 707.78 566.352 C 690.228 588.401 669.763 608.299 646.931 625.613 L 646.931 625.613 L 511.99 751.346 L 365.678 887.673 L 511.99 1024 L 833.886 724.082 C 1011.657 558.433 1011.657 289.877 833.886 124.228 L 833.886 124.228 C 744.995 41.403 628.488 0 511.99 0 L 511.99 0 C 395.483 0 278.986 41.403 190.095 124.228 Z"/><linearGradient id="_lgradient_0" x1=".825" x2=".35" y1=".295" y2=".658" gradientTransform="matrix(832.134,0,0,-1024,135.081,1024)" gradientUnits="userSpaceOnUse"><stop offset="0%" stop-opacity="1" style="stop-color:#64d977"/><stop offset="57.977%" stop-opacity="1" style="stop-color:#00c79a"/><stop offset="98.261%" stop-opacity="1" style="stop-color:#00b2b9"/></linearGradient><path fill="url(#_lgradient_0)" d="M 190.095 124.228 C 169.314 143.591 150.999 164.375 135.081 186.221 L 135.081 186.221 C 198.445 100.176 304.73 43.701 425.199 43.701 L 425.199 43.701 C 619.414 43.701 776.85 190.393 776.85 371.354 L 776.85 371.354 C 776.85 429.489 760.526 484.054 732.019 531.391 L 732.019 531.391 C 725.204 543.555 717.091 555.239 707.78 566.352 L 707.78 566.352 C 690.228 588.401 669.763 608.299 646.931 625.613 L 646.931 625.613 L 511.99 751.346 L 365.678 887.673 L 511.99 1024 L 833.886 724.082 C 1011.657 558.433 1011.657 289.877 833.886 124.228 L 833.886 124.228 C 744.995 41.403 628.488 0 511.99 0 L 511.99 0 C 395.483 0 278.986 41.403 190.095 124.228 Z"/><path fill="none" d="M 135.081 186.221 C 134.189 187.43 133.298 188.639 132.426 189.848 L 132.426 189.848 C 129.801 193.531 127.226 197.241 124.739 201.025 L 124.739 201.025 C 124.561 201.311 124.383 201.607 124.185 201.884 L 124.185 201.884 C 16.068 365.363 38.018 582.383 190.095 724.082 L 190.095 724.082 L 291.715 818.748 L 438.017 682.42 L 336.408 587.746 C 239.602 497.538 239.602 350.772 336.408 260.564 L 336.408 260.564 C 383.31 216.863 445.674 192.792 511.99 192.792 L 511.99 192.792 C 578.317 192.792 640.661 216.863 687.563 260.564 L 687.563 260.564 C 766.113 333.744 780.922 444.155 732.019 531.391 L 732.019 531.391 C 760.526 484.054 776.85 429.489 776.85 371.354 L 776.85 371.354 C 776.85 190.393 619.414 43.701 425.199 43.701 L 425.199 43.701 C 304.73 43.701 198.445 100.176 135.081 186.221"/><linearGradient id="_lgradient_1" x1=".315" x2=".857" y1=".802" y2=".326" gradientTransform="matrix(720.065,0,0,-775.047,56.786,818.748)" gradientUnits="userSpaceOnUse"><stop offset=".435%" stop-opacity="1" style="stop-color:#3a005f"/><stop offset="45.652%" stop-opacity="1" style="stop-color:#003c92"/><stop offset="97.391%" stop-opacity="1" style="stop-color:#47a3ea"/></linearGradient><path fill="url(#_lgradient_1)" d="M 135.081 186.221 C 134.189 187.43 133.298 188.639 132.426 189.848 L 132.426 189.848 C 129.801 193.531 127.226 197.241 124.739 201.025 L 124.739 201.025 C 124.561 201.311 124.383 201.607 124.185 201.884 L 124.185 201.884 C 16.068 365.363 38.018 582.383 190.095 724.082 L 190.095 724.082 L 291.715 818.748 L 438.017 682.42 L 336.408 587.746 C 239.602 497.538 239.602 350.772 336.408 260.564 L 336.408 260.564 C 383.31 216.863 445.674 192.792 511.99 192.792 L 511.99 192.792 C 578.317 192.792 640.661 216.863 687.563 260.564 L 687.563 260.564 C 766.113 333.744 780.922 444.155 732.019 531.391 L 732.019 531.391 C 760.526 484.054 776.85 429.489 776.85 371.354 L 776.85 371.354 C 776.85 190.393 619.414 43.701 425.199 43.701 L 425.199 43.701 C 304.73 43.701 198.445 100.176 135.081 186.221"/><path fill="none" d="M 379.565 365.096 C 368.967 384.598 363.023 406.628 363.023 429.988 L 363.023 429.988 C 363.023 509.812 432.549 574.474 518.231 574.474 L 518.231 574.474 C 603.902 574.474 673.428 509.812 673.428 429.988 L 673.428 429.988 C 673.428 406.508 667.475 384.468 656.758 364.847 L 656.758 364.847 C 631.301 317.648 578.832 285.372 518.231 285.372 L 518.231 285.372 C 457.62 285.372 405.022 317.768 379.565 365.096"/><linearGradient id="_lgradient_2" x1="-.308" x2=".958" y1="1.341" y2="-.033" gradientTransform="matrix(310.405,0,0,-289.101,363.023,574.474)" gradientUnits="userSpaceOnUse"><stop offset="0%" stop-opacity="1" style="stop-color:#3a005f"/><stop offset="64.673%" stop-opacity="1" style="stop-color:#003c92"/><stop offset="98.696%" stop-opacity="1" style="stop-color:#0067b5"/></linearGradient><path fill="url(#_lgradient_2)" d="M 379.565 365.096 C 368.967 384.598 363.023 406.628 363.023 429.988 L 363.023 429.988 C 363.023 509.812 432.549 574.474 518.231 574.474 L 518.231 574.474 C 603.902 574.474 673.428 509.812 673.428 429.988 L 673.428 429.988 C 673.428 406.508 667.475 384.468 656.758 364.847 L 656.758 364.847 C 631.301 317.648 578.832 285.372 518.231 285.372 L 518.231 285.372 C 457.62 285.372 405.022 317.768 379.565 365.096"/></g></g></g></g></g></svg>